<?xml version="1.0" encoding="utf-8" standalone="no"?>
<!DOCTYPE svg PUBLIC "-//W3C//DTD SVG 1.1//EN"
  "http://www.w3.org/Graphics/SVG/1.1/DTD/svg11.dtd">
<svg height="345.6pt" version="1.1" viewBox="0 0 460.8 345.6" width="460.8pt" xmlns="http://www.w3.org/2000/svg" xmlns:xlink="http://www.w3.org/1999/xlink">
 <metadata>
  <rdf:RDF xmlns:cc="http://creativecommons.org/ns#" xmlns:dc="http://purl.org/dc/elements/1.1/" xmlns:rdf="http://www.w3.org/1999/02/22-rdf-syntax-ns#">
   <cc:Work>
    <dc:type rdf:resource="http://purl.org/dc/dcmitype/StillImage"/>
    <dc:date>2022-10-20T14:22:32.715645</dc:date>
    <dc:format>image/svg+xml</dc:format>
    <dc:creator>
     <cc:Agent>
      <dc:title>Matplotlib v3.4.3, https://matplotlib.org/</dc:title>
     </cc:Agent>
    </dc:creator>
   </cc:Work>
  </rdf:RDF>
 </metadata>
 <defs>
  <style type="text/css">*{stroke-linecap:butt;stroke-linejoin:round;}</style>
 </defs>
 <g id="figure_1">
  <g id="patch_1">
   <path d="M 0 345.6 
L 460.8 345.6 
L 460.8 0 
L 0 0 
z
" style="fill:#ffffff;"/>
  </g>
  <g id="axes_1">
   <g id="patch_2">
    <path d="M 57.6 307.584 
L 414.72 307.584 
L 414.72 41.472 
L 57.6 41.472 
z
" style="fill:#ffffff;"/>
   </g>
   <g id="PathCollection_1">
    <defs>
     <path d="M 0 3 
C 0.795609 3 1.55874 2.683901 2.12132 2.12132 
C 2.683901 1.55874 3 0.795609 3 0 
C 3 -0.795609 2.683901 -1.55874 2.12132 -2.12132 
C 1.55874 -2.683901 0.795609 -3 0 -3 
C -0.795609 -3 -1.55874 -2.683901 -2.12132 -2.12132 
C -2.683901 -1.55874 -3 -0.795609 -3 0 
C -3 0.795609 -2.683901 1.55874 -2.12132 2.12132 
C -1.55874 2.683901 -0.795609 3 0 3 
z
" id="ma5af760665" style="stroke:#0000ff;stroke-width:2.7;"/>
    </defs>
    <g clip-path="url(#p679f90526f)">
     <use style="fill:#0000ff;stroke:#0000ff;stroke-width:2.7;" x="57.6" xlink:href="#ma5af760665" y="306.608256"/>
     <use style="fill:#0000ff;stroke:#0000ff;stroke-width:2.7;" x="77.561429" xlink:href="#ma5af760665" y="207.082368"/>
     <use style="fill:#0000ff;stroke:#0000ff;stroke-width:2.7;" x="97.522858" xlink:href="#ma5af760665" y="148.537728"/>
     <use style="fill:#0000ff;stroke:#0000ff;stroke-width:2.7;" x="117.484286" xlink:href="#ma5af760665" y="115.362432"/>
     <use style="fill:#0000ff;stroke:#0000ff;stroke-width:2.7;" x="137.445715" xlink:href="#ma5af760665" y="93.896064"/>
     <use style="fill:#0000ff;stroke:#0000ff;stroke-width:2.7;" x="157.407144" xlink:href="#ma5af760665" y="82.187136"/>
     <use style="fill:#0000ff;stroke:#0000ff;stroke-width:2.7;" x="177.368573" xlink:href="#ma5af760665" y="74.381184"/>
     <use style="fill:#0000ff;stroke:#0000ff;stroke-width:2.7;" x="197.330001" xlink:href="#ma5af760665" y="70.478208"/>
     <use style="fill:#0000ff;stroke:#0000ff;stroke-width:2.7;" x="217.29143" xlink:href="#ma5af760665" y="101.702016"/>
     <use style="fill:#0000ff;stroke:#0000ff;stroke-width:2.7;" x="237.252859" xlink:href="#ma5af760665" y="175.85856"/>
     <use style="fill:#0000ff;stroke:#0000ff;stroke-width:2.7;" x="257.214288" xlink:href="#ma5af760665" y="220.742784"/>
     <use style="fill:#0000ff;stroke:#0000ff;stroke-width:2.7;" x="277.175716" xlink:href="#ma5af760665" y="251.966592"/>
     <use style="fill:#0000ff;stroke:#0000ff;stroke-width:2.7;" x="297.137145" xlink:href="#ma5af760665" y="271.481472"/>
     <use style="fill:#0000ff;stroke:#0000ff;stroke-width:2.7;" x="317.098574" xlink:href="#ma5af760665" y="285.141888"/>
     <use style="fill:#0000ff;stroke:#0000ff;stroke-width:2.7;" x="337.060003" xlink:href="#ma5af760665" y="292.94784"/>
     <use style="fill:#0000ff;stroke:#0000ff;stroke-width:2.7;" x="357.021431" xlink:href="#ma5af760665" y="298.802304"/>
     <use style="fill:#0000ff;stroke:#0000ff;stroke-width:2.7;" x="376.98286" xlink:href="#ma5af760665" y="300.753792"/>
     <use style="fill:#0000ff;stroke:#0000ff;stroke-width:2.7;" x="396.944289" xlink:href="#ma5af760665" y="304.656768"/>
    </g>
   </g>
   <g id="matplotlib.axis_1">
    <g id="xtick_1">
     <g id="line2d_1">
      <path clip-path="url(#p679f90526f)" d="M 57.6 307.584 
L 57.6 41.472 
" style="fill:none;stroke:#000000;stroke-linecap:square;stroke-width:0.5;"/>
     </g>
     <g id="line2d_2">
      <defs>
       <path d="M 0 0 
L 0 3.5 
" id="m5d39646a12" style="stroke:#000000;stroke-width:0.8;"/>
      </defs>
      <g>
       <use style="stroke:#000000;stroke-width:0.8;" x="57.6" xlink:href="#m5d39646a12" y="307.584"/>
      </g>
     </g>
     <g id="text_1">
      <!-- 0 -->
      <g transform="translate(54.41875 322.182437)scale(0.1 -0.1)">
       <defs>
        <path d="M 2034 4250 
Q 1547 4250 1301 3770 
Q 1056 3291 1056 2328 
Q 1056 1369 1301 889 
Q 1547 409 2034 409 
Q 2525 409 2770 889 
Q 3016 1369 3016 2328 
Q 3016 3291 2770 3770 
Q 2525 4250 2034 4250 
z
M 2034 4750 
Q 2819 4750 3233 4129 
Q 3647 3509 3647 2328 
Q 3647 1150 3233 529 
Q 2819 -91 2034 -91 
Q 1250 -91 836 529 
Q 422 1150 422 2328 
Q 422 3509 836 4129 
Q 1250 4750 2034 4750 
z
" id="DejaVuSans-30" transform="scale(0.015625)"/>
       </defs>
       <use xlink:href="#DejaVuSans-30"/>
      </g>
     </g>
    </g>
    <g id="xtick_2">
     <g id="line2d_3">
      <path clip-path="url(#p679f90526f)" d="M 117.12 307.584 
L 117.12 41.472 
" style="fill:none;stroke:#000000;stroke-linecap:square;stroke-width:0.5;"/>
     </g>
     <g id="line2d_4">
      <g>
       <use style="stroke:#000000;stroke-width:0.8;" x="117.12" xlink:href="#m5d39646a12" y="307.584"/>
      </g>
     </g>
     <g id="text_2">
      <!-- 2 -->
      <g transform="translate(113.93875 322.182437)scale(0.1 -0.1)">
       <defs>
        <path d="M 1228 531 
L 3431 531 
L 3431 0 
L 469 0 
L 469 531 
Q 828 903 1448 1529 
Q 2069 2156 2228 2338 
Q 2531 2678 2651 2914 
Q 2772 3150 2772 3378 
Q 2772 3750 2511 3984 
Q 2250 4219 1831 4219 
Q 1534 4219 1204 4116 
Q 875 4013 500 3803 
L 500 4441 
Q 881 4594 1212 4672 
Q 1544 4750 1819 4750 
Q 2544 4750 2975 4387 
Q 3406 4025 3406 3419 
Q 3406 3131 3298 2873 
Q 3191 2616 2906 2266 
Q 2828 2175 2409 1742 
Q 1991 1309 1228 531 
z
" id="DejaVuSans-32" transform="scale(0.015625)"/>
       </defs>
       <use xlink:href="#DejaVuSans-32"/>
      </g>
     </g>
    </g>
    <g id="xtick_3">
     <g id="line2d_5">
      <path clip-path="url(#p679f90526f)" d="M 176.64 307.584 
L 176.64 41.472 
" style="fill:none;stroke:#000000;stroke-linecap:square;stroke-width:0.5;"/>
     </g>
     <g id="line2d_6">
      <g>
       <use style="stroke:#000000;stroke-width:0.8;" x="176.64" xlink:href="#m5d39646a12" y="307.584"/>
      </g>
     </g>
     <g id="text_3">
      <!-- 4 -->
      <g transform="translate(173.45875 322.182437)scale(0.1 -0.1)">
       <defs>
        <path d="M 2419 4116 
L 825 1625 
L 2419 1625 
L 2419 4116 
z
M 2253 4666 
L 3047 4666 
L 3047 1625 
L 3713 1625 
L 3713 1100 
L 3047 1100 
L 3047 0 
L 2419 0 
L 2419 1100 
L 313 1100 
L 313 1709 
L 2253 4666 
z
" id="DejaVuSans-34" transform="scale(0.015625)"/>
       </defs>
       <use xlink:href="#DejaVuSans-34"/>
      </g>
     </g>
    </g>
    <g id="xtick_4">
     <g id="line2d_7">
      <path clip-path="url(#p679f90526f)" d="M 236.16 307.584 
L 236.16 41.472 
" style="fill:none;stroke:#000000;stroke-linecap:square;stroke-width:0.5;"/>
     </g>
     <g id="line2d_8">
      <g>
       <use style="stroke:#000000;stroke-width:0.8;" x="236.16" xlink:href="#m5d39646a12" y="307.584"/>
      </g>
     </g>
     <g id="text_4">
      <!-- 6 -->
      <g transform="translate(232.97875 322.182437)scale(0.1 -0.1)">
       <defs>
        <path d="M 2113 2584 
Q 1688 2584 1439 2293 
Q 1191 2003 1191 1497 
Q 1191 994 1439 701 
Q 1688 409 2113 409 
Q 2538 409 2786 701 
Q 3034 994 3034 1497 
Q 3034 2003 2786 2293 
Q 2538 2584 2113 2584 
z
M 3366 4563 
L 3366 3988 
Q 3128 4100 2886 4159 
Q 2644 4219 2406 4219 
Q 1781 4219 1451 3797 
Q 1122 3375 1075 2522 
Q 1259 2794 1537 2939 
Q 1816 3084 2150 3084 
Q 2853 3084 3261 2657 
Q 3669 2231 3669 1497 
Q 3669 778 3244 343 
Q 2819 -91 2113 -91 
Q 1303 -91 875 529 
Q 447 1150 447 2328 
Q 447 3434 972 4092 
Q 1497 4750 2381 4750 
Q 2619 4750 2861 4703 
Q 3103 4656 3366 4563 
z
" id="DejaVuSans-36" transform="scale(0.015625)"/>
       </defs>
       <use xlink:href="#DejaVuSans-36"/>
      </g>
     </g>
    </g>
    <g id="xtick_5">
     <g id="line2d_9">
      <path clip-path="url(#p679f90526f)" d="M 295.68 307.584 
L 295.68 41.472 
" style="fill:none;stroke:#000000;stroke-linecap:square;stroke-width:0.5;"/>
     </g>
     <g id="line2d_10">
      <g>
       <use style="stroke:#000000;stroke-width:0.8;" x="295.68" xlink:href="#m5d39646a12" y="307.584"/>
      </g>
     </g>
     <g id="text_5">
      <!-- 8 -->
      <g transform="translate(292.49875 322.182437)scale(0.1 -0.1)">
       <defs>
        <path d="M 2034 2216 
Q 1584 2216 1326 1975 
Q 1069 1734 1069 1313 
Q 1069 891 1326 650 
Q 1584 409 2034 409 
Q 2484 409 2743 651 
Q 3003 894 3003 1313 
Q 3003 1734 2745 1975 
Q 2488 2216 2034 2216 
z
M 1403 2484 
Q 997 2584 770 2862 
Q 544 3141 544 3541 
Q 544 4100 942 4425 
Q 1341 4750 2034 4750 
Q 2731 4750 3128 4425 
Q 3525 4100 3525 3541 
Q 3525 3141 3298 2862 
Q 3072 2584 2669 2484 
Q 3125 2378 3379 2068 
Q 3634 1759 3634 1313 
Q 3634 634 3220 271 
Q 2806 -91 2034 -91 
Q 1263 -91 848 271 
Q 434 634 434 1313 
Q 434 1759 690 2068 
Q 947 2378 1403 2484 
z
M 1172 3481 
Q 1172 3119 1398 2916 
Q 1625 2713 2034 2713 
Q 2441 2713 2670 2916 
Q 2900 3119 2900 3481 
Q 2900 3844 2670 4047 
Q 2441 4250 2034 4250 
Q 1625 4250 1398 4047 
Q 1172 3844 1172 3481 
z
" id="DejaVuSans-38" transform="scale(0.015625)"/>
       </defs>
       <use xlink:href="#DejaVuSans-38"/>
      </g>
     </g>
    </g>
    <g id="xtick_6">
     <g id="line2d_11">
      <path clip-path="url(#p679f90526f)" d="M 355.2 307.584 
L 355.2 41.472 
" style="fill:none;stroke:#000000;stroke-linecap:square;stroke-width:0.5;"/>
     </g>
     <g id="line2d_12">
      <g>
       <use style="stroke:#000000;stroke-width:0.8;" x="355.2" xlink:href="#m5d39646a12" y="307.584"/>
      </g>
     </g>
     <g id="text_6">
      <!-- 10 -->
      <g transform="translate(348.8375 322.182437)scale(0.1 -0.1)">
       <defs>
        <path d="M 794 531 
L 1825 531 
L 1825 4091 
L 703 3866 
L 703 4441 
L 1819 4666 
L 2450 4666 
L 2450 531 
L 3481 531 
L 3481 0 
L 794 0 
L 794 531 
z
" id="DejaVuSans-31" transform="scale(0.015625)"/>
       </defs>
       <use xlink:href="#DejaVuSans-31"/>
       <use x="63.623047" xlink:href="#DejaVuSans-30"/>
      </g>
     </g>
    </g>
    <g id="xtick_7">
     <g id="line2d_13">
      <path clip-path="url(#p679f90526f)" d="M 414.72 307.584 
L 414.72 41.472 
" style="fill:none;stroke:#000000;stroke-linecap:square;stroke-width:0.5;"/>
     </g>
     <g id="line2d_14">
      <g>
       <use style="stroke:#000000;stroke-width:0.8;" x="414.72" xlink:href="#m5d39646a12" y="307.584"/>
      </g>
     </g>
     <g id="text_7">
      <!-- 12 -->
      <g transform="translate(408.3575 322.182437)scale(0.1 -0.1)">
       <use xlink:href="#DejaVuSans-31"/>
       <use x="63.623047" xlink:href="#DejaVuSans-32"/>
      </g>
     </g>
    </g>
    <g id="xtick_8">
     <g id="line2d_15">
      <path clip-path="url(#p679f90526f)" d="M 72.48 307.584 
L 72.48 41.472 
" style="fill:none;stroke:#000000;stroke-dasharray:0.8,1.32;stroke-dashoffset:0;stroke-width:0.8;"/>
     </g>
     <g id="line2d_16">
      <defs>
       <path d="M 0 0 
L 0 2 
" id="m07b42a52c7" style="stroke:#000000;stroke-width:0.6;"/>
      </defs>
      <g>
       <use style="stroke:#000000;stroke-width:0.6;" x="72.48" xlink:href="#m07b42a52c7" y="307.584"/>
      </g>
     </g>
    </g>
    <g id="xtick_9">
     <g id="line2d_17">
      <path clip-path="url(#p679f90526f)" d="M 87.36 307.584 
L 87.36 41.472 
" style="fill:none;stroke:#000000;stroke-dasharray:0.8,1.32;stroke-dashoffset:0;stroke-width:0.8;"/>
     </g>
     <g id="line2d_18">
      <g>
       <use style="stroke:#000000;stroke-width:0.6;" x="87.36" xlink:href="#m07b42a52c7" y="307.584"/>
      </g>
     </g>
    </g>
    <g id="xtick_10">
     <g id="line2d_19">
      <path clip-path="url(#p679f90526f)" d="M 102.24 307.584 
L 102.24 41.472 
" style="fill:none;stroke:#000000;stroke-dasharray:0.8,1.32;stroke-dashoffset:0;stroke-width:0.8;"/>
     </g>
     <g id="line2d_20">
      <g>
       <use style="stroke:#000000;stroke-width:0.6;" x="102.24" xlink:href="#m07b42a52c7" y="307.584"/>
      </g>
     </g>
    </g>
    <g id="xtick_11">
     <g id="line2d_21">
      <path clip-path="url(#p679f90526f)" d="M 132 307.584 
L 132 41.472 
" style="fill:none;stroke:#000000;stroke-dasharray:0.8,1.32;stroke-dashoffset:0;stroke-width:0.8;"/>
     </g>
     <g id="line2d_22">
      <g>
       <use style="stroke:#000000;stroke-width:0.6;" x="132" xlink:href="#m07b42a52c7" y="307.584"/>
      </g>
     </g>
    </g>
    <g id="xtick_12">
     <g id="line2d_23">
      <path clip-path="url(#p679f90526f)" d="M 146.88 307.584 
L 146.88 41.472 
" style="fill:none;stroke:#000000;stroke-dasharray:0.8,1.32;stroke-dashoffset:0;stroke-width:0.8;"/>
     </g>
     <g id="line2d_24">
      <g>
       <use style="stroke:#000000;stroke-width:0.6;" x="146.88" xlink:href="#m07b42a52c7" y="307.584"/>
      </g>
     </g>
    </g>
    <g id="xtick_13">
     <g id="line2d_25">
      <path clip-path="url(#p679f90526f)" d="M 161.76 307.584 
L 161.76 41.472 
" style="fill:none;stroke:#000000;stroke-dasharray:0.8,1.32;stroke-dashoffset:0;stroke-width:0.8;"/>
     </g>
     <g id="line2d_26">
      <g>
       <use style="stroke:#000000;stroke-width:0.6;" x="161.76" xlink:href="#m07b42a52c7" y="307.584"/>
      </g>
     </g>
    </g>
    <g id="xtick_14">
     <g id="line2d_27">
      <path clip-path="url(#p679f90526f)" d="M 191.52 307.584 
L 191.52 41.472 
" style="fill:none;stroke:#000000;stroke-dasharray:0.8,1.32;stroke-dashoffset:0;stroke-width:0.8;"/>
     </g>
     <g id="line2d_28">
      <g>
       <use style="stroke:#000000;stroke-width:0.6;" x="191.52" xlink:href="#m07b42a52c7" y="307.584"/>
      </g>
     </g>
    </g>
    <g id="xtick_15">
     <g id="line2d_29">
      <path clip-path="url(#p679f90526f)" d="M 206.4 307.584 
L 206.4 41.472 
" style="fill:none;stroke:#000000;stroke-dasharray:0.8,1.32;stroke-dashoffset:0;stroke-width:0.8;"/>
     </g>
     <g id="line2d_30">
      <g>
       <use style="stroke:#000000;stroke-width:0.6;" x="206.4" xlink:href="#m07b42a52c7" y="307.584"/>
      </g>
     </g>
    </g>
    <g id="xtick_16">
     <g id="line2d_31">
      <path clip-path="url(#p679f90526f)" d="M 221.28 307.584 
L 221.28 41.472 
" style="fill:none;stroke:#000000;stroke-dasharray:0.8,1.32;stroke-dashoffset:0;stroke-width:0.8;"/>
     </g>
     <g id="line2d_32">
      <g>
       <use style="stroke:#000000;stroke-width:0.6;" x="221.28" xlink:href="#m07b42a52c7" y="307.584"/>
      </g>
     </g>
    </g>
    <g id="xtick_17">
     <g id="line2d_33">
      <path clip-path="url(#p679f90526f)" d="M 251.04 307.584 
L 251.04 41.472 
" style="fill:none;stroke:#000000;stroke-dasharray:0.8,1.32;stroke-dashoffset:0;stroke-width:0.8;"/>
     </g>
     <g id="line2d_34">
      <g>
       <use style="stroke:#000000;stroke-width:0.6;" x="251.04" xlink:href="#m07b42a52c7" y="307.584"/>
      </g>
     </g>
    </g>
    <g id="xtick_18">
     <g id="line2d_35">
      <path clip-path="url(#p679f90526f)" d="M 265.92 307.584 
L 265.92 41.472 
" style="fill:none;stroke:#000000;stroke-dasharray:0.8,1.32;stroke-dashoffset:0;stroke-width:0.8;"/>
     </g>
     <g id="line2d_36">
      <g>
       <use style="stroke:#000000;stroke-width:0.6;" x="265.92" xlink:href="#m07b42a52c7" y="307.584"/>
      </g>
     </g>
    </g>
    <g id="xtick_19">
     <g id="line2d_37">
      <path clip-path="url(#p679f90526f)" d="M 280.8 307.584 
L 280.8 41.472 
" style="fill:none;stroke:#000000;stroke-dasharray:0.8,1.32;stroke-dashoffset:0;stroke-width:0.8;"/>
     </g>
     <g id="line2d_38">
      <g>
       <use style="stroke:#000000;stroke-width:0.6;" x="280.8" xlink:href="#m07b42a52c7" y="307.584"/>
      </g>
     </g>
    </g>
    <g id="xtick_20">
     <g id="line2d_39">
      <path clip-path="url(#p679f90526f)" d="M 310.56 307.584 
L 310.56 41.472 
" style="fill:none;stroke:#000000;stroke-dasharray:0.8,1.32;stroke-dashoffset:0;stroke-width:0.8;"/>
     </g>
     <g id="line2d_40">
      <g>
       <use style="stroke:#000000;stroke-width:0.6;" x="310.56" xlink:href="#m07b42a52c7" y="307.584"/>
      </g>
     </g>
    </g>
    <g id="xtick_21">
     <g id="line2d_41">
      <path clip-path="url(#p679f90526f)" d="M 325.44 307.584 
L 325.44 41.472 
" style="fill:none;stroke:#000000;stroke-dasharray:0.8,1.32;stroke-dashoffset:0;stroke-width:0.8;"/>
     </g>
     <g id="line2d_42">
      <g>
       <use style="stroke:#000000;stroke-width:0.6;" x="325.44" xlink:href="#m07b42a52c7" y="307.584"/>
      </g>
     </g>
    </g>
    <g id="xtick_22">
     <g id="line2d_43">
      <path clip-path="url(#p679f90526f)" d="M 340.32 307.584 
L 340.32 41.472 
" style="fill:none;stroke:#000000;stroke-dasharray:0.8,1.32;stroke-dashoffset:0;stroke-width:0.8;"/>
     </g>
     <g id="line2d_44">
      <g>
       <use style="stroke:#000000;stroke-width:0.6;" x="340.32" xlink:href="#m07b42a52c7" y="307.584"/>
      </g>
     </g>
    </g>
    <g id="xtick_23">
     <g id="line2d_45">
      <path clip-path="url(#p679f90526f)" d="M 370.08 307.584 
L 370.08 41.472 
" style="fill:none;stroke:#000000;stroke-dasharray:0.8,1.32;stroke-dashoffset:0;stroke-width:0.8;"/>
     </g>
     <g id="line2d_46">
      <g>
       <use style="stroke:#000000;stroke-width:0.6;" x="370.08" xlink:href="#m07b42a52c7" y="307.584"/>
      </g>
     </g>
    </g>
    <g id="xtick_24">
     <g id="line2d_47">
      <path clip-path="url(#p679f90526f)" d="M 384.96 307.584 
L 384.96 41.472 
" style="fill:none;stroke:#000000;stroke-dasharray:0.8,1.32;stroke-dashoffset:0;stroke-width:0.8;"/>
     </g>
     <g id="line2d_48">
      <g>
       <use style="stroke:#000000;stroke-width:0.6;" x="384.96" xlink:href="#m07b42a52c7" y="307.584"/>
      </g>
     </g>
    </g>
    <g id="xtick_25">
     <g id="line2d_49">
      <path clip-path="url(#p679f90526f)" d="M 399.84 307.584 
L 399.84 41.472 
" style="fill:none;stroke:#000000;stroke-dasharray:0.8,1.32;stroke-dashoffset:0;stroke-width:0.8;"/>
     </g>
     <g id="line2d_50">
      <g>
       <use style="stroke:#000000;stroke-width:0.6;" x="399.84" xlink:href="#m07b42a52c7" y="307.584"/>
      </g>
     </g>
    </g>
    <g id="text_8">
     <!-- Время, с -->
     <g transform="translate(213.771719 335.860562)scale(0.1 -0.1)">
      <defs>
       <path d="M 1259 2228 
L 1259 519 
L 2272 519 
Q 2781 519 3026 730 
Q 3272 941 3272 1375 
Q 3272 1813 3026 2020 
Q 2781 2228 2272 2228 
L 1259 2228 
z
M 1259 4147 
L 1259 2741 
L 2194 2741 
Q 2656 2741 2882 2914 
Q 3109 3088 3109 3444 
Q 3109 3797 2882 3972 
Q 2656 4147 2194 4147 
L 1259 4147 
z
M 628 4666 
L 2241 4666 
Q 2963 4666 3353 4366 
Q 3744 4066 3744 3513 
Q 3744 3084 3544 2831 
Q 3344 2578 2956 2516 
Q 3422 2416 3680 2098 
Q 3938 1781 3938 1306 
Q 3938 681 3513 340 
Q 3088 0 2303 0 
L 628 0 
L 628 4666 
z
" id="DejaVuSans-412" transform="scale(0.015625)"/>
       <path d="M 1159 525 
L 1159 -1331 
L 581 -1331 
L 581 3500 
L 1159 3500 
L 1159 2969 
Q 1341 3281 1617 3432 
Q 1894 3584 2278 3584 
Q 2916 3584 3314 3078 
Q 3713 2572 3713 1747 
Q 3713 922 3314 415 
Q 2916 -91 2278 -91 
Q 1894 -91 1617 61 
Q 1341 213 1159 525 
z
M 3116 1747 
Q 3116 2381 2855 2742 
Q 2594 3103 2138 3103 
Q 1681 3103 1420 2742 
Q 1159 2381 1159 1747 
Q 1159 1113 1420 752 
Q 1681 391 2138 391 
Q 2594 391 2855 752 
Q 3116 1113 3116 1747 
z
" id="DejaVuSans-440" transform="scale(0.015625)"/>
       <path d="M 3597 1894 
L 3597 1613 
L 953 1613 
Q 991 1019 1311 708 
Q 1631 397 2203 397 
Q 2534 397 2845 478 
Q 3156 559 3463 722 
L 3463 178 
Q 3153 47 2828 -22 
Q 2503 -91 2169 -91 
Q 1331 -91 842 396 
Q 353 884 353 1716 
Q 353 2575 817 3079 
Q 1281 3584 2069 3584 
Q 2775 3584 3186 3129 
Q 3597 2675 3597 1894 
z
M 3022 2063 
Q 3016 2534 2758 2815 
Q 2500 3097 2075 3097 
Q 1594 3097 1305 2825 
Q 1016 2553 972 2059 
L 3022 2063 
z
" id="DejaVuSans-435" transform="scale(0.015625)"/>
       <path d="M 581 3500 
L 1422 3500 
L 2416 1156 
L 3413 3500 
L 4247 3500 
L 4247 0 
L 3669 0 
L 3669 2950 
L 2703 672 
L 2128 672 
L 1159 2950 
L 1159 0 
L 581 0 
L 581 3500 
z
" id="DejaVuSans-43c" transform="scale(0.015625)"/>
       <path d="M 1181 2491 
Q 1181 2231 1381 2084 
Q 1581 1938 1953 1938 
L 2728 1938 
L 2728 3041 
L 1953 3041 
Q 1581 3041 1381 2897 
Q 1181 2753 1181 2491 
z
M 363 0 
L 1431 1534 
Q 1069 1616 828 1830 
Q 588 2044 588 2491 
Q 588 2997 923 3248 
Q 1259 3500 1938 3500 
L 3306 3500 
L 3306 0 
L 2728 0 
L 2728 1478 
L 2013 1478 
L 981 0 
L 363 0 
z
" id="DejaVuSans-44f" transform="scale(0.015625)"/>
       <path d="M 750 794 
L 1409 794 
L 1409 256 
L 897 -744 
L 494 -744 
L 750 256 
L 750 794 
z
" id="DejaVuSans-2c" transform="scale(0.015625)"/>
       <path id="DejaVuSans-20" transform="scale(0.015625)"/>
       <path d="M 3122 3366 
L 3122 2828 
Q 2878 2963 2633 3030 
Q 2388 3097 2138 3097 
Q 1578 3097 1268 2742 
Q 959 2388 959 1747 
Q 959 1106 1268 751 
Q 1578 397 2138 397 
Q 2388 397 2633 464 
Q 2878 531 3122 666 
L 3122 134 
Q 2881 22 2623 -34 
Q 2366 -91 2075 -91 
Q 1284 -91 818 406 
Q 353 903 353 1747 
Q 353 2603 823 3093 
Q 1294 3584 2113 3584 
Q 2378 3584 2631 3529 
Q 2884 3475 3122 3366 
z
" id="DejaVuSans-441" transform="scale(0.015625)"/>
      </defs>
      <use xlink:href="#DejaVuSans-412"/>
      <use x="68.603516" xlink:href="#DejaVuSans-440"/>
      <use x="132.080078" xlink:href="#DejaVuSans-435"/>
      <use x="193.603516" xlink:href="#DejaVuSans-43c"/>
      <use x="269.042969" xlink:href="#DejaVuSans-44f"/>
      <use x="329.199219" xlink:href="#DejaVuSans-2c"/>
      <use x="360.986328" xlink:href="#DejaVuSans-20"/>
      <use x="392.773438" xlink:href="#DejaVuSans-441"/>
     </g>
    </g>
   </g>
   <g id="matplotlib.axis_2">
    <g id="ytick_1">
     <g id="line2d_51">
      <path clip-path="url(#p679f90526f)" d="M 57.6 307.584 
L 414.72 307.584 
" style="fill:none;stroke:#000000;stroke-linecap:square;stroke-width:0.5;"/>
     </g>
     <g id="line2d_52">
      <defs>
       <path d="M 0 0 
L -3.5 0 
" id="m148ff256af" style="stroke:#000000;stroke-width:0.8;"/>
      </defs>
      <g>
       <use style="stroke:#000000;stroke-width:0.8;" x="57.6" xlink:href="#m148ff256af" y="307.584"/>
      </g>
     </g>
     <g id="text_9">
      <!-- 0.0 -->
      <g transform="translate(34.696875 311.383219)scale(0.1 -0.1)">
       <defs>
        <path d="M 684 794 
L 1344 794 
L 1344 0 
L 684 0 
L 684 794 
z
" id="DejaVuSans-2e" transform="scale(0.015625)"/>
       </defs>
       <use xlink:href="#DejaVuSans-30"/>
       <use x="63.623047" xlink:href="#DejaVuSans-2e"/>
       <use x="95.410156" xlink:href="#DejaVuSans-30"/>
      </g>
     </g>
    </g>
    <g id="ytick_2">
     <g id="line2d_53">
      <path clip-path="url(#p679f90526f)" d="M 57.6 263.232 
L 414.72 263.232 
" style="fill:none;stroke:#000000;stroke-linecap:square;stroke-width:0.5;"/>
     </g>
     <g id="line2d_54">
      <g>
       <use style="stroke:#000000;stroke-width:0.8;" x="57.6" xlink:href="#m148ff256af" y="263.232"/>
      </g>
     </g>
     <g id="text_10">
      <!-- 0.5 -->
      <g transform="translate(34.696875 267.031219)scale(0.1 -0.1)">
       <defs>
        <path d="M 691 4666 
L 3169 4666 
L 3169 4134 
L 1269 4134 
L 1269 2991 
Q 1406 3038 1543 3061 
Q 1681 3084 1819 3084 
Q 2600 3084 3056 2656 
Q 3513 2228 3513 1497 
Q 3513 744 3044 326 
Q 2575 -91 1722 -91 
Q 1428 -91 1123 -41 
Q 819 9 494 109 
L 494 744 
Q 775 591 1075 516 
Q 1375 441 1709 441 
Q 2250 441 2565 725 
Q 2881 1009 2881 1497 
Q 2881 1984 2565 2268 
Q 2250 2553 1709 2553 
Q 1456 2553 1204 2497 
Q 953 2441 691 2322 
L 691 4666 
z
" id="DejaVuSans-35" transform="scale(0.015625)"/>
       </defs>
       <use xlink:href="#DejaVuSans-30"/>
       <use x="63.623047" xlink:href="#DejaVuSans-2e"/>
       <use x="95.410156" xlink:href="#DejaVuSans-35"/>
      </g>
     </g>
    </g>
    <g id="ytick_3">
     <g id="line2d_55">
      <path clip-path="url(#p679f90526f)" d="M 57.6 218.88 
L 414.72 218.88 
" style="fill:none;stroke:#000000;stroke-linecap:square;stroke-width:0.5;"/>
     </g>
     <g id="line2d_56">
      <g>
       <use style="stroke:#000000;stroke-width:0.8;" x="57.6" xlink:href="#m148ff256af" y="218.88"/>
      </g>
     </g>
     <g id="text_11">
      <!-- 1.0 -->
      <g transform="translate(34.696875 222.679219)scale(0.1 -0.1)">
       <use xlink:href="#DejaVuSans-31"/>
       <use x="63.623047" xlink:href="#DejaVuSans-2e"/>
       <use x="95.410156" xlink:href="#DejaVuSans-30"/>
      </g>
     </g>
    </g>
    <g id="ytick_4">
     <g id="line2d_57">
      <path clip-path="url(#p679f90526f)" d="M 57.6 174.528 
L 414.72 174.528 
" style="fill:none;stroke:#000000;stroke-linecap:square;stroke-width:0.5;"/>
     </g>
     <g id="line2d_58">
      <g>
       <use style="stroke:#000000;stroke-width:0.8;" x="57.6" xlink:href="#m148ff256af" y="174.528"/>
      </g>
     </g>
     <g id="text_12">
      <!-- 1.5 -->
      <g transform="translate(34.696875 178.327219)scale(0.1 -0.1)">
       <use xlink:href="#DejaVuSans-31"/>
       <use x="63.623047" xlink:href="#DejaVuSans-2e"/>
       <use x="95.410156" xlink:href="#DejaVuSans-35"/>
      </g>
     </g>
    </g>
    <g id="ytick_5">
     <g id="line2d_59">
      <path clip-path="url(#p679f90526f)" d="M 57.6 130.176 
L 414.72 130.176 
" style="fill:none;stroke:#000000;stroke-linecap:square;stroke-width:0.5;"/>
     </g>
     <g id="line2d_60">
      <g>
       <use style="stroke:#000000;stroke-width:0.8;" x="57.6" xlink:href="#m148ff256af" y="130.176"/>
      </g>
     </g>
     <g id="text_13">
      <!-- 2.0 -->
      <g transform="translate(34.696875 133.975219)scale(0.1 -0.1)">
       <use xlink:href="#DejaVuSans-32"/>
       <use x="63.623047" xlink:href="#DejaVuSans-2e"/>
       <use x="95.410156" xlink:href="#DejaVuSans-30"/>
      </g>
     </g>
    </g>
    <g id="ytick_6">
     <g id="line2d_61">
      <path clip-path="url(#p679f90526f)" d="M 57.6 85.824 
L 414.72 85.824 
" style="fill:none;stroke:#000000;stroke-linecap:square;stroke-width:0.5;"/>
     </g>
     <g id="line2d_62">
      <g>
       <use style="stroke:#000000;stroke-width:0.8;" x="57.6" xlink:href="#m148ff256af" y="85.824"/>
      </g>
     </g>
     <g id="text_14">
      <!-- 2.5 -->
      <g transform="translate(34.696875 89.623219)scale(0.1 -0.1)">
       <use xlink:href="#DejaVuSans-32"/>
       <use x="63.623047" xlink:href="#DejaVuSans-2e"/>
       <use x="95.410156" xlink:href="#DejaVuSans-35"/>
      </g>
     </g>
    </g>
    <g id="ytick_7">
     <g id="line2d_63">
      <path clip-path="url(#p679f90526f)" d="M 57.6 41.472 
L 414.72 41.472 
" style="fill:none;stroke:#000000;stroke-linecap:square;stroke-width:0.5;"/>
     </g>
     <g id="line2d_64">
      <g>
       <use style="stroke:#000000;stroke-width:0.8;" x="57.6" xlink:href="#m148ff256af" y="41.472"/>
      </g>
     </g>
     <g id="text_15">
      <!-- 3.0 -->
      <g transform="translate(34.696875 45.271219)scale(0.1 -0.1)">
       <defs>
        <path d="M 2597 2516 
Q 3050 2419 3304 2112 
Q 3559 1806 3559 1356 
Q 3559 666 3084 287 
Q 2609 -91 1734 -91 
Q 1441 -91 1130 -33 
Q 819 25 488 141 
L 488 750 
Q 750 597 1062 519 
Q 1375 441 1716 441 
Q 2309 441 2620 675 
Q 2931 909 2931 1356 
Q 2931 1769 2642 2001 
Q 2353 2234 1838 2234 
L 1294 2234 
L 1294 2753 
L 1863 2753 
Q 2328 2753 2575 2939 
Q 2822 3125 2822 3475 
Q 2822 3834 2567 4026 
Q 2313 4219 1838 4219 
Q 1578 4219 1281 4162 
Q 984 4106 628 3988 
L 628 4550 
Q 988 4650 1302 4700 
Q 1616 4750 1894 4750 
Q 2613 4750 3031 4423 
Q 3450 4097 3450 3541 
Q 3450 3153 3228 2886 
Q 3006 2619 2597 2516 
z
" id="DejaVuSans-33" transform="scale(0.015625)"/>
       </defs>
       <use xlink:href="#DejaVuSans-33"/>
       <use x="63.623047" xlink:href="#DejaVuSans-2e"/>
       <use x="95.410156" xlink:href="#DejaVuSans-30"/>
      </g>
     </g>
    </g>
    <g id="ytick_8">
     <g id="line2d_65">
      <path clip-path="url(#p679f90526f)" d="M 57.6 298.7136 
L 414.72 298.7136 
" style="fill:none;stroke:#000000;stroke-dasharray:0.8,1.32;stroke-dashoffset:0;stroke-width:0.8;"/>
     </g>
     <g id="line2d_66">
      <defs>
       <path d="M 0 0 
L -2 0 
" id="m3035dc3e18" style="stroke:#000000;stroke-width:0.6;"/>
      </defs>
      <g>
       <use style="stroke:#000000;stroke-width:0.6;" x="57.6" xlink:href="#m3035dc3e18" y="298.7136"/>
      </g>
     </g>
    </g>
    <g id="ytick_9">
     <g id="line2d_67">
      <path clip-path="url(#p679f90526f)" d="M 57.6 289.8432 
L 414.72 289.8432 
" style="fill:none;stroke:#000000;stroke-dasharray:0.8,1.32;stroke-dashoffset:0;stroke-width:0.8;"/>
     </g>
     <g id="line2d_68">
      <g>
       <use style="stroke:#000000;stroke-width:0.6;" x="57.6" xlink:href="#m3035dc3e18" y="289.8432"/>
      </g>
     </g>
    </g>
    <g id="ytick_10">
     <g id="line2d_69">
      <path clip-path="url(#p679f90526f)" d="M 57.6 280.9728 
L 414.72 280.9728 
" style="fill:none;stroke:#000000;stroke-dasharray:0.8,1.32;stroke-dashoffset:0;stroke-width:0.8;"/>
     </g>
     <g id="line2d_70">
      <g>
       <use style="stroke:#000000;stroke-width:0.6;" x="57.6" xlink:href="#m3035dc3e18" y="280.9728"/>
      </g>
     </g>
    </g>
    <g id="ytick_11">
     <g id="line2d_71">
      <path clip-path="url(#p679f90526f)" d="M 57.6 272.1024 
L 414.72 272.1024 
" style="fill:none;stroke:#000000;stroke-dasharray:0.8,1.32;stroke-dashoffset:0;stroke-width:0.8;"/>
     </g>
     <g id="line2d_72">
      <g>
       <use style="stroke:#000000;stroke-width:0.6;" x="57.6" xlink:href="#m3035dc3e18" y="272.1024"/>
      </g>
     </g>
    </g>
    <g id="ytick_12">
     <g id="line2d_73">
      <path clip-path="url(#p679f90526f)" d="M 57.6 254.3616 
L 414.72 254.3616 
" style="fill:none;stroke:#000000;stroke-dasharray:0.8,1.32;stroke-dashoffset:0;stroke-width:0.8;"/>
     </g>
     <g id="line2d_74">
      <g>
       <use style="stroke:#000000;stroke-width:0.6;" x="57.6" xlink:href="#m3035dc3e18" y="254.3616"/>
      </g>
     </g>
    </g>
    <g id="ytick_13">
     <g id="line2d_75">
      <path clip-path="url(#p679f90526f)" d="M 57.6 245.4912 
L 414.72 245.4912 
" style="fill:none;stroke:#000000;stroke-dasharray:0.8,1.32;stroke-dashoffset:0;stroke-width:0.8;"/>
     </g>
     <g id="line2d_76">
      <g>
       <use style="stroke:#000000;stroke-width:0.6;" x="57.6" xlink:href="#m3035dc3e18" y="245.4912"/>
      </g>
     </g>
    </g>
    <g id="ytick_14">
     <g id="line2d_77">
      <path clip-path="url(#p679f90526f)" d="M 57.6 236.6208 
L 414.72 236.6208 
" style="fill:none;stroke:#000000;stroke-dasharray:0.8,1.32;stroke-dashoffset:0;stroke-width:0.8;"/>
     </g>
     <g id="line2d_78">
      <g>
       <use style="stroke:#000000;stroke-width:0.6;" x="57.6" xlink:href="#m3035dc3e18" y="236.6208"/>
      </g>
     </g>
    </g>
    <g id="ytick_15">
     <g id="line2d_79">
      <path clip-path="url(#p679f90526f)" d="M 57.6 227.7504 
L 414.72 227.7504 
" style="fill:none;stroke:#000000;stroke-dasharray:0.8,1.32;stroke-dashoffset:0;stroke-width:0.8;"/>
     </g>
     <g id="line2d_80">
      <g>
       <use style="stroke:#000000;stroke-width:0.6;" x="57.6" xlink:href="#m3035dc3e18" y="227.7504"/>
      </g>
     </g>
    </g>
    <g id="ytick_16">
     <g id="line2d_81">
      <path clip-path="url(#p679f90526f)" d="M 57.6 210.0096 
L 414.72 210.0096 
" style="fill:none;stroke:#000000;stroke-dasharray:0.8,1.32;stroke-dashoffset:0;stroke-width:0.8;"/>
     </g>
     <g id="line2d_82">
      <g>
       <use style="stroke:#000000;stroke-width:0.6;" x="57.6" xlink:href="#m3035dc3e18" y="210.0096"/>
      </g>
     </g>
    </g>
    <g id="ytick_17">
     <g id="line2d_83">
      <path clip-path="url(#p679f90526f)" d="M 57.6 201.1392 
L 414.72 201.1392 
" style="fill:none;stroke:#000000;stroke-dasharray:0.8,1.32;stroke-dashoffset:0;stroke-width:0.8;"/>
     </g>
     <g id="line2d_84">
      <g>
       <use style="stroke:#000000;stroke-width:0.6;" x="57.6" xlink:href="#m3035dc3e18" y="201.1392"/>
      </g>
     </g>
    </g>
    <g id="ytick_18">
     <g id="line2d_85">
      <path clip-path="url(#p679f90526f)" d="M 57.6 192.2688 
L 414.72 192.2688 
" style="fill:none;stroke:#000000;stroke-dasharray:0.8,1.32;stroke-dashoffset:0;stroke-width:0.8;"/>
     </g>
     <g id="line2d_86">
      <g>
       <use style="stroke:#000000;stroke-width:0.6;" x="57.6" xlink:href="#m3035dc3e18" y="192.2688"/>
      </g>
     </g>
    </g>
    <g id="ytick_19">
     <g id="line2d_87">
      <path clip-path="url(#p679f90526f)" d="M 57.6 183.3984 
L 414.72 183.3984 
" style="fill:none;stroke:#000000;stroke-dasharray:0.8,1.32;stroke-dashoffset:0;stroke-width:0.8;"/>
     </g>
     <g id="line2d_88">
      <g>
       <use style="stroke:#000000;stroke-width:0.6;" x="57.6" xlink:href="#m3035dc3e18" y="183.3984"/>
      </g>
     </g>
    </g>
    <g id="ytick_20">
     <g id="line2d_89">
      <path clip-path="url(#p679f90526f)" d="M 57.6 165.6576 
L 414.72 165.6576 
" style="fill:none;stroke:#000000;stroke-dasharray:0.8,1.32;stroke-dashoffset:0;stroke-width:0.8;"/>
     </g>
     <g id="line2d_90">
      <g>
       <use style="stroke:#000000;stroke-width:0.6;" x="57.6" xlink:href="#m3035dc3e18" y="165.6576"/>
      </g>
     </g>
    </g>
    <g id="ytick_21">
     <g id="line2d_91">
      <path clip-path="url(#p679f90526f)" d="M 57.6 156.7872 
L 414.72 156.7872 
" style="fill:none;stroke:#000000;stroke-dasharray:0.8,1.32;stroke-dashoffset:0;stroke-width:0.8;"/>
     </g>
     <g id="line2d_92">
      <g>
       <use style="stroke:#000000;stroke-width:0.6;" x="57.6" xlink:href="#m3035dc3e18" y="156.7872"/>
      </g>
     </g>
    </g>
    <g id="ytick_22">
     <g id="line2d_93">
      <path clip-path="url(#p679f90526f)" d="M 57.6 147.9168 
L 414.72 147.9168 
" style="fill:none;stroke:#000000;stroke-dasharray:0.8,1.32;stroke-dashoffset:0;stroke-width:0.8;"/>
     </g>
     <g id="line2d_94">
      <g>
       <use style="stroke:#000000;stroke-width:0.6;" x="57.6" xlink:href="#m3035dc3e18" y="147.9168"/>
      </g>
     </g>
    </g>
    <g id="ytick_23">
     <g id="line2d_95">
      <path clip-path="url(#p679f90526f)" d="M 57.6 139.0464 
L 414.72 139.0464 
" style="fill:none;stroke:#000000;stroke-dasharray:0.8,1.32;stroke-dashoffset:0;stroke-width:0.8;"/>
     </g>
     <g id="line2d_96">
      <g>
       <use style="stroke:#000000;stroke-width:0.6;" x="57.6" xlink:href="#m3035dc3e18" y="139.0464"/>
      </g>
     </g>
    </g>
    <g id="ytick_24">
     <g id="line2d_97">
      <path clip-path="url(#p679f90526f)" d="M 57.6 121.3056 
L 414.72 121.3056 
" style="fill:none;stroke:#000000;stroke-dasharray:0.8,1.32;stroke-dashoffset:0;stroke-width:0.8;"/>
     </g>
     <g id="line2d_98">
      <g>
       <use style="stroke:#000000;stroke-width:0.6;" x="57.6" xlink:href="#m3035dc3e18" y="121.3056"/>
      </g>
     </g>
    </g>
    <g id="ytick_25">
     <g id="line2d_99">
      <path clip-path="url(#p679f90526f)" d="M 57.6 112.4352 
L 414.72 112.4352 
" style="fill:none;stroke:#000000;stroke-dasharray:0.8,1.32;stroke-dashoffset:0;stroke-width:0.8;"/>
     </g>
     <g id="line2d_100">
      <g>
       <use style="stroke:#000000;stroke-width:0.6;" x="57.6" xlink:href="#m3035dc3e18" y="112.4352"/>
      </g>
     </g>
    </g>
    <g id="ytick_26">
     <g id="line2d_101">
      <path clip-path="url(#p679f90526f)" d="M 57.6 103.5648 
L 414.72 103.5648 
" style="fill:none;stroke:#000000;stroke-dasharray:0.8,1.32;stroke-dashoffset:0;stroke-width:0.8;"/>
     </g>
     <g id="line2d_102">
      <g>
       <use style="stroke:#000000;stroke-width:0.6;" x="57.6" xlink:href="#m3035dc3e18" y="103.5648"/>
      </g>
     </g>
    </g>
    <g id="ytick_27">
     <g id="line2d_103">
      <path clip-path="url(#p679f90526f)" d="M 57.6 94.6944 
L 414.72 94.6944 
" style="fill:none;stroke:#000000;stroke-dasharray:0.8,1.32;stroke-dashoffset:0;stroke-width:0.8;"/>
     </g>
     <g id="line2d_104">
      <g>
       <use style="stroke:#000000;stroke-width:0.6;" x="57.6" xlink:href="#m3035dc3e18" y="94.6944"/>
      </g>
     </g>
    </g>
    <g id="ytick_28">
     <g id="line2d_105">
      <path clip-path="url(#p679f90526f)" d="M 57.6 76.9536 
L 414.72 76.9536 
" style="fill:none;stroke:#000000;stroke-dasharray:0.8,1.32;stroke-dashoffset:0;stroke-width:0.8;"/>
     </g>
     <g id="line2d_106">
      <g>
       <use style="stroke:#000000;stroke-width:0.6;" x="57.6" xlink:href="#m3035dc3e18" y="76.9536"/>
      </g>
     </g>
    </g>
    <g id="ytick_29">
     <g id="line2d_107">
      <path clip-path="url(#p679f90526f)" d="M 57.6 68.0832 
L 414.72 68.0832 
" style="fill:none;stroke:#000000;stroke-dasharray:0.8,1.32;stroke-dashoffset:0;stroke-width:0.8;"/>
     </g>
     <g id="line2d_108">
      <g>
       <use style="stroke:#000000;stroke-width:0.6;" x="57.6" xlink:href="#m3035dc3e18" y="68.0832"/>
      </g>
     </g>
    </g>
    <g id="ytick_30">
     <g id="line2d_109">
      <path clip-path="url(#p679f90526f)" d="M 57.6 59.2128 
L 414.72 59.2128 
" style="fill:none;stroke:#000000;stroke-dasharray:0.8,1.32;stroke-dashoffset:0;stroke-width:0.8;"/>
     </g>
     <g id="line2d_110">
      <g>
       <use style="stroke:#000000;stroke-width:0.6;" x="57.6" xlink:href="#m3035dc3e18" y="59.2128"/>
      </g>
     </g>
    </g>
    <g id="ytick_31">
     <g id="line2d_111">
      <path clip-path="url(#p679f90526f)" d="M 57.6 50.3424 
L 414.72 50.3424 
" style="fill:none;stroke:#000000;stroke-dasharray:0.8,1.32;stroke-dashoffset:0;stroke-width:0.8;"/>
     </g>
     <g id="line2d_112">
      <g>
       <use style="stroke:#000000;stroke-width:0.6;" x="57.6" xlink:href="#m3035dc3e18" y="50.3424"/>
      </g>
     </g>
    </g>
    <g id="text_16">
     <!-- Напряжение, В -->
     <g transform="translate(28.617187 214.587375)rotate(-90)scale(0.1 -0.1)">
      <defs>
       <path d="M 628 4666 
L 1259 4666 
L 1259 2753 
L 3553 2753 
L 3553 4666 
L 4184 4666 
L 4184 0 
L 3553 0 
L 3553 2222 
L 1259 2222 
L 1259 0 
L 628 0 
L 628 4666 
z
" id="DejaVuSans-41d" transform="scale(0.015625)"/>
       <path d="M 2194 1759 
Q 1497 1759 1228 1600 
Q 959 1441 959 1056 
Q 959 750 1161 570 
Q 1363 391 1709 391 
Q 2188 391 2477 730 
Q 2766 1069 2766 1631 
L 2766 1759 
L 2194 1759 
z
M 3341 1997 
L 3341 0 
L 2766 0 
L 2766 531 
Q 2569 213 2275 61 
Q 1981 -91 1556 -91 
Q 1019 -91 701 211 
Q 384 513 384 1019 
Q 384 1609 779 1909 
Q 1175 2209 1959 2209 
L 2766 2209 
L 2766 2266 
Q 2766 2663 2505 2880 
Q 2244 3097 1772 3097 
Q 1472 3097 1187 3025 
Q 903 2953 641 2809 
L 641 3341 
Q 956 3463 1253 3523 
Q 1550 3584 1831 3584 
Q 2591 3584 2966 3190 
Q 3341 2797 3341 1997 
z
" id="DejaVuSans-430" transform="scale(0.015625)"/>
       <path d="M 3603 3500 
L 3603 0 
L 3025 0 
L 3025 3041 
L 1159 3041 
L 1159 0 
L 581 0 
L 581 3500 
L 3603 3500 
z
" id="DejaVuSans-43f" transform="scale(0.015625)"/>
       <path d="M 2597 3500 
L 3169 3500 
L 3169 1856 
L 4697 3500 
L 5366 3500 
L 4109 2153 
L 5547 0 
L 4931 0 
L 3753 1769 
L 3169 1141 
L 3169 0 
L 2597 0 
L 2597 1141 
L 2013 1769 
L 834 0 
L 219 0 
L 1656 2153 
L 400 3500 
L 1069 3500 
L 2597 1856 
L 2597 3500 
z
" id="DejaVuSans-436" transform="scale(0.015625)"/>
       <path d="M 581 3500 
L 1159 3500 
L 1159 2072 
L 3025 2072 
L 3025 3500 
L 3603 3500 
L 3603 0 
L 3025 0 
L 3025 1613 
L 1159 1613 
L 1159 0 
L 581 0 
L 581 3500 
z
" id="DejaVuSans-43d" transform="scale(0.015625)"/>
       <path d="M 3578 3500 
L 3578 0 
L 3006 0 
L 3006 2809 
L 1319 0 
L 581 0 
L 581 3500 
L 1153 3500 
L 1153 697 
L 2838 3500 
L 3578 3500 
z
" id="DejaVuSans-438" transform="scale(0.015625)"/>
      </defs>
      <use xlink:href="#DejaVuSans-41d"/>
      <use x="75.195312" xlink:href="#DejaVuSans-430"/>
      <use x="136.474609" xlink:href="#DejaVuSans-43f"/>
      <use x="201.855469" xlink:href="#DejaVuSans-440"/>
      <use x="265.332031" xlink:href="#DejaVuSans-44f"/>
      <use x="325.488281" xlink:href="#DejaVuSans-436"/>
      <use x="415.576172" xlink:href="#DejaVuSans-435"/>
      <use x="477.099609" xlink:href="#DejaVuSans-43d"/>
      <use x="542.480469" xlink:href="#DejaVuSans-438"/>
      <use x="607.470703" xlink:href="#DejaVuSans-435"/>
      <use x="668.994141" xlink:href="#DejaVuSans-2c"/>
      <use x="700.78125" xlink:href="#DejaVuSans-20"/>
      <use x="732.568359" xlink:href="#DejaVuSans-412"/>
     </g>
    </g>
   </g>
   <g id="line2d_113">
    <path clip-path="url(#p679f90526f)" d="M 57.6 306.608256 
L 57.999229 302.70528 
L 59.196914 296.850816 
L 59.596143 292.94784 
L 60.3946 289.044864 
L 60.793829 285.141888 
L 61.193057 285.141888 
L 61.592286 281.238912 
L 61.991514 281.238912 
L 62.390743 277.335936 
L 62.789971 277.335936 
L 63.1892 271.481472 
L 68.379172 246.112128 
L 68.7784 246.112128 
L 69.177629 242.209152 
L 70.774543 234.4032 
L 71.173772 234.4032 
L 71.573 230.500224 
L 71.972229 230.500224 
L 75.166057 214.88832 
L 75.565286 214.88832 
L 77.1622 207.082368 
L 77.561429 207.082368 
L 79.158343 199.276416 
L 79.557572 199.276416 
L 80.356029 195.37344 
L 80.755257 195.37344 
L 81.553715 191.470464 
L 81.952943 191.470464 
L 82.7514 187.567488 
L 83.150629 187.567488 
L 83.949086 183.664512 
L 84.747543 183.664512 
L 85.146772 179.761536 
L 85.546 179.761536 
L 85.945229 177.810048 
L 86.344457 177.810048 
L 87.142915 173.907072 
L 87.542143 173.907072 
L 87.941372 171.955584 
L 88.3406 171.955584 
L 89.139057 168.052608 
L 89.937515 168.052608 
L 90.735972 164.149632 
L 91.534429 164.149632 
L 92.332886 160.246656 
L 92.732115 160.246656 
L 93.131343 158.295168 
L 93.530572 158.295168 
L 93.9298 156.34368 
L 94.329029 156.34368 
L 94.728257 154.392192 
L 95.127486 154.392192 
L 95.526715 152.440704 
L 96.7244 152.440704 
L 97.123629 148.537728 
L 97.922086 148.537728 
L 98.321315 146.58624 
L 98.720543 146.58624 
L 99.119772 144.634752 
L 99.918229 144.634752 
L 100.317458 142.683264 
L 100.716686 142.683264 
L 101.115915 140.731776 
L 101.515143 140.731776 
L 101.914372 138.780288 
L 103.112058 138.780288 
L 103.910515 134.877312 
L 104.708972 134.877312 
L 105.1082 132.925824 
L 105.906658 132.925824 
L 106.305886 130.974336 
L 106.705115 130.974336 
L 107.104343 129.022848 
L 108.302029 129.022848 
L 108.701258 127.07136 
L 109.100486 127.07136 
L 109.499715 125.119872 
L 110.298172 125.119872 
L 110.697401 123.168384 
L 111.895086 123.168384 
L 112.693543 119.265408 
L 115.088915 119.265408 
L 115.887372 115.362432 
L 117.484286 115.362432 
L 117.883515 113.410944 
L 119.081201 113.410944 
L 119.480429 111.459456 
L 120.278886 111.459456 
L 120.678115 109.507968 
L 121.476572 109.507968 
L 121.875801 107.55648 
L 123.472715 107.55648 
L 123.871943 105.604992 
L 125.468858 105.604992 
L 125.868086 103.653504 
L 127.465001 103.653504 
L 127.864229 101.702016 
L 129.461144 101.702016 
L 129.860372 99.750528 
L 130.658829 99.750528 
L 131.058058 97.79904 
L 131.457286 99.750528 
L 131.856515 97.79904 
L 133.054201 97.79904 
L 133.453429 95.847552 
L 136.248029 95.847552 
L 136.647258 93.896064 
L 138.643401 93.896064 
L 139.042629 91.944576 
L 141.038772 91.944576 
L 141.438001 89.993088 
L 143.034915 89.993088 
L 143.434144 88.0416 
L 147.825658 88.0416 
L 148.224887 86.090112 
L 151.418715 86.090112 
L 151.817944 84.138624 
L 152.217172 86.090112 
L 152.616401 84.138624 
L 154.612544 84.138624 
L 155.011772 82.187136 
L 155.411001 84.138624 
L 155.81023 82.187136 
L 159.403287 82.187136 
L 159.802515 80.235648 
L 163.395572 80.235648 
L 163.794801 78.28416 
L 167.387858 78.28416 
L 167.787087 76.332672 
L 168.186315 78.28416 
L 168.585544 78.28416 
L 168.984772 76.332672 
L 172.57783 76.332672 
L 172.977058 74.381184 
L 173.376287 76.332672 
L 173.775515 76.332672 
L 174.174744 74.381184 
L 174.573973 76.332672 
L 174.973201 76.332672 
L 175.37243 74.381184 
L 178.566258 74.381184 
L 178.965487 72.429696 
L 179.364715 74.381184 
L 179.763944 74.381184 
L 180.163173 72.429696 
L 180.562401 72.429696 
L 180.96163 74.381184 
L 182.159315 74.381184 
L 182.558544 72.429696 
L 190.143887 72.429696 
L 190.543116 70.478208 
L 190.942344 72.429696 
L 191.341573 70.478208 
L 200.124601 70.478208 
L 200.52383 68.52672 
L 200.923059 68.52672 
L 201.322287 70.478208 
L 201.721516 70.478208 
L 202.120744 68.52672 
L 202.519973 68.52672 
L 202.919201 70.478208 
L 203.31843 68.52672 
L 210.105316 68.52672 
L 210.504544 66.575232 
L 210.903773 70.478208 
L 211.303001 72.429696 
L 211.70223 72.429696 
L 212.101459 76.332672 
L 212.899916 80.235648 
L 213.299144 84.138624 
L 213.698373 84.138624 
L 214.097601 88.0416 
L 214.49683 88.0416 
L 214.896059 91.944576 
L 215.694516 95.847552 
L 216.093744 95.847552 
L 216.492973 99.750528 
L 216.892202 99.750528 
L 220.884487 119.265408 
L 221.283716 119.265408 
L 223.279859 129.022848 
L 223.679087 129.022848 
L 224.078316 132.925824 
L 224.477544 132.925824 
L 224.876773 134.877312 
L 225.276002 134.877312 
L 227.272144 144.634752 
L 227.671373 144.634752 
L 229.268287 152.440704 
L 229.667516 152.440704 
L 230.465973 156.34368 
L 230.865202 156.34368 
L 231.26443 158.295168 
L 231.663659 158.295168 
L 232.861345 164.149632 
L 233.260573 164.149632 
L 233.659802 166.10112 
L 234.05903 166.10112 
L 234.857487 170.004096 
L 235.256716 170.004096 
L 236.055173 173.907072 
L 236.454402 173.907072 
L 236.85363 175.85856 
L 237.252859 175.85856 
L 237.652087 177.810048 
L 238.051316 177.810048 
L 238.450545 179.761536 
L 238.849773 179.761536 
L 239.249002 181.713024 
L 239.64823 181.713024 
L 240.047459 183.664512 
L 240.446687 183.664512 
L 240.845916 185.616 
L 241.245145 185.616 
L 242.043602 189.518976 
L 242.842059 189.518976 
L 243.241287 191.470464 
L 243.640516 191.470464 
L 244.039745 193.421952 
L 244.438973 193.421952 
L 245.23743 197.324928 
L 246.035888 197.324928 
L 246.435116 199.276416 
L 246.834345 199.276416 
L 247.233573 201.227904 
L 247.632802 201.227904 
L 248.03203 203.179392 
L 248.431259 203.179392 
L 248.830488 205.13088 
L 249.628945 205.13088 
L 250.028173 207.082368 
L 250.427402 207.082368 
L 250.82663 209.033856 
L 251.225859 209.033856 
L 251.625088 210.985344 
L 252.024316 210.985344 
L 252.423545 212.936832 
L 253.62123 212.936832 
L 254.419688 216.839808 
L 255.218145 216.839808 
L 255.617373 218.791296 
L 256.016602 218.791296 
L 256.41583 220.742784 
L 257.613516 220.742784 
L 258.012745 222.694272 
L 258.411973 222.694272 
L 258.811202 224.64576 
L 259.609659 224.64576 
L 260.008888 226.597248 
L 260.408116 226.597248 
L 260.807345 228.548736 
L 261.605802 228.548736 
L 262.005031 230.500224 
L 263.202716 230.500224 
L 263.601945 232.451712 
L 264.400402 232.451712 
L 264.799631 234.4032 
L 265.598088 234.4032 
L 265.997316 236.354688 
L 267.195002 236.354688 
L 267.594231 238.306176 
L 267.993459 238.306176 
L 268.392688 240.257664 
L 269.590373 240.257664 
L 269.989602 242.209152 
L 270.788059 242.209152 
L 271.187288 244.16064 
L 271.586516 244.16064 
L 271.985745 246.112128 
L 274.381116 246.112128 
L 274.780345 248.063616 
L 275.578802 248.063616 
L 275.978031 250.015104 
L 276.776488 250.015104 
L 277.175716 251.966592 
L 278.772631 251.966592 
L 279.171859 253.91808 
L 280.369545 253.91808 
L 280.768774 255.869568 
L 281.567231 255.869568 
L 281.966459 257.821056 
L 283.563374 257.821056 
L 283.962602 259.772544 
L 285.559516 259.772544 
L 285.958745 261.724032 
L 286.357974 259.772544 
L 286.757202 261.724032 
L 287.555659 261.724032 
L 287.954888 263.67552 
L 289.551802 263.67552 
L 289.951031 265.627008 
L 291.547945 265.627008 
L 291.947174 267.578496 
L 293.544088 267.578496 
L 293.943317 269.529984 
L 296.338688 269.529984 
L 296.737917 271.481472 
L 298.334831 271.481472 
L 298.734059 273.43296 
L 300.330974 273.43296 
L 300.730202 275.384448 
L 301.129431 273.43296 
L 301.528659 275.384448 
L 302.726345 275.384448 
L 303.125574 277.335936 
L 307.11786 277.335936 
L 307.517088 279.287424 
L 310.311688 279.287424 
L 310.710917 281.238912 
L 312.70706 281.238912 
L 313.106288 283.1904 
L 316.699345 283.1904 
L 317.098574 285.141888 
L 321.09086 285.141888 
L 321.490088 287.093376 
L 324.683917 287.093376 
L 325.083145 289.044864 
L 325.482374 287.093376 
L 325.881603 289.044864 
L 330.273117 289.044864 
L 330.672345 290.996352 
L 334.265403 290.996352 
L 334.664631 292.94784 
L 341.052288 292.94784 
L 341.451517 294.899328 
L 347.839174 294.899328 
L 348.238403 296.850816 
L 348.637631 294.899328 
L 349.03686 296.850816 
L 355.424517 296.850816 
L 355.823746 298.802304 
L 364.207546 298.802304 
L 364.606774 300.753792 
L 365.006003 298.802304 
L 366.203689 298.802304 
L 366.602917 300.753792 
L 367.002146 300.753792 
L 367.401374 298.802304 
L 367.800603 300.753792 
L 375.785174 300.753792 
L 376.184403 302.70528 
L 376.583632 300.753792 
L 379.77746 300.753792 
L 380.176689 302.70528 
L 380.975146 302.70528 
L 381.374375 300.753792 
L 381.773603 302.70528 
L 392.552775 302.70528 
L 392.952003 304.656768 
L 393.351232 302.70528 
L 394.149689 302.70528 
L 394.548918 304.656768 
L 415.308803 304.656768 
L 415.708032 306.608256 
L 415.708032 306.608256 
" style="fill:none;stroke:#0000ff;stroke-linecap:square;stroke-width:2;"/>
   </g>
   <g id="patch_3">
    <path d="M 57.6 307.584 
L 57.6 41.472 
" style="fill:none;stroke:#000000;stroke-linecap:square;stroke-linejoin:miter;stroke-width:0.8;"/>
   </g>
   <g id="patch_4">
    <path d="M 414.72 307.584 
L 414.72 41.472 
" style="fill:none;stroke:#000000;stroke-linecap:square;stroke-linejoin:miter;stroke-width:0.8;"/>
   </g>
   <g id="patch_5">
    <path d="M 57.6 307.584 
L 414.72 307.584 
" style="fill:none;stroke:#000000;stroke-linecap:square;stroke-linejoin:miter;stroke-width:0.8;"/>
   </g>
   <g id="patch_6">
    <path d="M 57.6 41.472 
L 414.72 41.472 
" style="fill:none;stroke:#000000;stroke-linecap:square;stroke-linejoin:miter;stroke-width:0.8;"/>
   </g>
   <g id="text_17">
    <!-- Хороший график -->
    <g transform="translate(127.087775 163.981775)scale(0.1 -0.1)">
     <defs>
      <path d="M 403 4666 
L 1081 4666 
L 2241 2931 
L 3406 4666 
L 4084 4666 
L 2584 2425 
L 4184 0 
L 3506 0 
L 2194 1984 
L 872 0 
L 191 0 
L 1856 2491 
L 403 4666 
z
" id="DejaVuSans-425" transform="scale(0.015625)"/>
      <path d="M 1959 3097 
Q 1497 3097 1228 2736 
Q 959 2375 959 1747 
Q 959 1119 1226 758 
Q 1494 397 1959 397 
Q 2419 397 2687 759 
Q 2956 1122 2956 1747 
Q 2956 2369 2687 2733 
Q 2419 3097 1959 3097 
z
M 1959 3584 
Q 2709 3584 3137 3096 
Q 3566 2609 3566 1747 
Q 3566 888 3137 398 
Q 2709 -91 1959 -91 
Q 1206 -91 779 398 
Q 353 888 353 1747 
Q 353 2609 779 3096 
Q 1206 3584 1959 3584 
z
" id="DejaVuSans-43e" transform="scale(0.015625)"/>
      <path d="M 3216 459 
L 4697 459 
L 4697 3500 
L 5275 3500 
L 5275 0 
L 581 0 
L 581 3500 
L 1159 3500 
L 1159 459 
L 2638 459 
L 2638 3500 
L 3216 3500 
L 3216 459 
z
" id="DejaVuSans-448" transform="scale(0.015625)"/>
      <path d="M 3578 3500 
L 3578 0 
L 3006 0 
L 3006 2809 
L 1319 0 
L 581 0 
L 581 3500 
L 1153 3500 
L 1153 697 
L 2838 3500 
L 3578 3500 
z
M 1102 4833 
L 1471 4833 
Q 1505 4599 1656 4481 
Q 1808 4364 2080 4364 
Q 2349 4364 2499 4480 
Q 2649 4596 2689 4833 
L 3058 4833 
Q 3027 4386 2780 4161 
Q 2533 3936 2080 3936 
Q 1627 3936 1380 4161 
Q 1133 4386 1102 4833 
z
" id="DejaVuSans-439" transform="scale(0.015625)"/>
      <path d="M 581 0 
L 581 3500 
L 3050 3500 
L 3050 3041 
L 1159 3041 
L 1159 0 
L 581 0 
z
" id="DejaVuSans-433" transform="scale(0.015625)"/>
      <path d="M 947 1747 
Q 947 1013 1173 702 
Q 1400 391 1784 391 
Q 2091 391 2447 916 
L 2447 2578 
Q 2091 3103 1784 3103 
Q 1400 3103 1173 2792 
Q 947 2481 947 1747 
z
M 2447 -1331 
L 2447 447 
Q 2269 153 2064 31 
Q 1859 -91 1600 -91 
Q 1078 -91 714 392 
Q 350 875 350 1734 
Q 350 2594 714 3089 
Q 1078 3584 1600 3584 
Q 1859 3584 2064 3465 
Q 2269 3347 2447 3053 
L 2447 4666 
L 3025 4666 
L 3025 3053 
Q 3203 3347 3408 3465 
Q 3613 3584 3872 3584 
Q 4394 3584 4758 3089 
Q 5122 2594 5122 1734 
Q 5122 875 4758 392 
Q 4394 -91 3872 -91 
Q 3613 -91 3408 31 
Q 3203 153 3025 447 
L 3025 -1331 
L 2447 -1331 
z
M 4525 1747 
Q 4525 2481 4298 2792 
Q 4072 3103 3688 3103 
Q 3381 3103 3025 2578 
L 3025 916 
Q 3381 391 3688 391 
Q 4072 391 4298 702 
Q 4525 1013 4525 1747 
z
" id="DejaVuSans-444" transform="scale(0.015625)"/>
      <path d="M 581 3500 
L 1153 3500 
L 1153 1856 
L 2775 3500 
L 3481 3500 
L 2144 2147 
L 3653 0 
L 3009 0 
L 1769 1766 
L 1153 1141 
L 1153 0 
L 581 0 
L 581 3500 
z
" id="DejaVuSans-43a" transform="scale(0.015625)"/>
     </defs>
     <use xlink:href="#DejaVuSans-425"/>
     <use x="68.505859" xlink:href="#DejaVuSans-43e"/>
     <use x="129.6875" xlink:href="#DejaVuSans-440"/>
     <use x="193.164062" xlink:href="#DejaVuSans-43e"/>
     <use x="254.345703" xlink:href="#DejaVuSans-448"/>
     <use x="345.849609" xlink:href="#DejaVuSans-438"/>
     <use x="410.839844" xlink:href="#DejaVuSans-439"/>
     <use x="475.830078" xlink:href="#DejaVuSans-20"/>
     <use x="507.617188" xlink:href="#DejaVuSans-433"/>
     <use x="560.15625" xlink:href="#DejaVuSans-440"/>
     <use x="623.632812" xlink:href="#DejaVuSans-430"/>
     <use x="684.912109" xlink:href="#DejaVuSans-444"/>
     <use x="770.410156" xlink:href="#DejaVuSans-438"/>
     <use x="835.400391" xlink:href="#DejaVuSans-43a"/>
    </g>
   </g>
   <g id="text_18">
    <!-- Процесс заряда и разряда конденсатора в RC-цепочке -->
    <g transform="translate(61.823438 35.472)scale(0.12 -0.12)">
     <defs>
      <path d="M 4184 4666 
L 4184 0 
L 3553 0 
L 3553 4134 
L 1259 4134 
L 1259 0 
L 628 0 
L 628 4666 
L 4184 4666 
z
" id="DejaVuSans-41f" transform="scale(0.015625)"/>
      <path d="M 3603 0 
L 581 0 
L 581 3500 
L 1159 3500 
L 1159 459 
L 3025 459 
L 3025 3500 
L 3603 3500 
L 3603 459 
L 4063 459 
L 4063 -884 
L 3603 -884 
L 3603 0 
z
" id="DejaVuSans-446" transform="scale(0.015625)"/>
      <path d="M 2206 1888 
Q 2594 1813 2809 1584 
Q 3025 1356 3025 1019 
Q 3025 478 2622 193 
Q 2219 -91 1475 -91 
Q 1225 -91 961 -47 
Q 697 -3 416 84 
L 416 619 
Q 638 503 903 445 
Q 1169 388 1459 388 
Q 1931 388 2195 563 
Q 2459 738 2459 1019 
Q 2459 1294 2225 1461 
Q 1991 1628 1563 1628 
L 1100 1628 
L 1100 2103 
L 1584 2103 
Q 1947 2103 2158 2242 
Q 2369 2381 2369 2600 
Q 2369 2800 2151 2944 
Q 1934 3088 1563 3088 
Q 1341 3088 1089 3047 
Q 838 3006 534 2916 
L 534 3438 
Q 841 3513 1106 3550 
Q 1372 3588 1609 3588 
Q 2222 3588 2576 3342 
Q 2931 3097 2931 2656 
Q 2931 2366 2743 2164 
Q 2556 1963 2206 1888 
z
" id="DejaVuSans-437" transform="scale(0.015625)"/>
      <path d="M 1384 459 
L 3053 459 
L 3053 3041 
L 1844 3041 
L 1844 2603 
Q 1844 1316 1475 628 
L 1384 459 
z
M 550 459 
Q 834 584 959 850 
Q 1266 1509 1266 2838 
L 1266 3500 
L 3631 3500 
L 3631 459 
L 4091 459 
L 4091 -884 
L 3631 -884 
L 3631 0 
L 794 0 
L 794 -884 
L 334 -884 
L 334 459 
L 550 459 
z
" id="DejaVuSans-434" transform="scale(0.015625)"/>
      <path d="M 188 3500 
L 3541 3500 
L 3541 3041 
L 2147 3041 
L 2147 0 
L 1581 0 
L 1581 3041 
L 188 3041 
L 188 3500 
z
" id="DejaVuSans-442" transform="scale(0.015625)"/>
      <path d="M 1156 1613 
L 1156 459 
L 1975 459 
Q 2369 459 2575 607 
Q 2781 756 2781 1038 
Q 2781 1319 2575 1466 
Q 2369 1613 1975 1613 
L 1156 1613 
z
M 1156 3041 
L 1156 2072 
L 1913 2072 
Q 2238 2072 2444 2201 
Q 2650 2331 2650 2563 
Q 2650 2794 2444 2917 
Q 2238 3041 1913 3041 
L 1156 3041 
z
M 581 3500 
L 1950 3500 
Q 2566 3500 2897 3275 
Q 3228 3050 3228 2634 
Q 3228 2313 3059 2123 
Q 2891 1934 2559 1888 
Q 2956 1813 3175 1575 
Q 3394 1338 3394 981 
Q 3394 513 3033 256 
Q 2672 0 2003 0 
L 581 0 
L 581 3500 
z
" id="DejaVuSans-432" transform="scale(0.015625)"/>
      <path d="M 2841 2188 
Q 3044 2119 3236 1894 
Q 3428 1669 3622 1275 
L 4263 0 
L 3584 0 
L 2988 1197 
Q 2756 1666 2539 1819 
Q 2322 1972 1947 1972 
L 1259 1972 
L 1259 0 
L 628 0 
L 628 4666 
L 2053 4666 
Q 2853 4666 3247 4331 
Q 3641 3997 3641 3322 
Q 3641 2881 3436 2590 
Q 3231 2300 2841 2188 
z
M 1259 4147 
L 1259 2491 
L 2053 2491 
Q 2509 2491 2742 2702 
Q 2975 2913 2975 3322 
Q 2975 3731 2742 3939 
Q 2509 4147 2053 4147 
L 1259 4147 
z
" id="DejaVuSans-52" transform="scale(0.015625)"/>
      <path d="M 4122 4306 
L 4122 3641 
Q 3803 3938 3442 4084 
Q 3081 4231 2675 4231 
Q 1875 4231 1450 3742 
Q 1025 3253 1025 2328 
Q 1025 1406 1450 917 
Q 1875 428 2675 428 
Q 3081 428 3442 575 
Q 3803 722 4122 1019 
L 4122 359 
Q 3791 134 3420 21 
Q 3050 -91 2638 -91 
Q 1578 -91 968 557 
Q 359 1206 359 2328 
Q 359 3453 968 4101 
Q 1578 4750 2638 4750 
Q 3056 4750 3426 4639 
Q 3797 4528 4122 4306 
z
" id="DejaVuSans-43" transform="scale(0.015625)"/>
      <path d="M 313 2009 
L 1997 2009 
L 1997 1497 
L 313 1497 
L 313 2009 
z
" id="DejaVuSans-2d" transform="scale(0.015625)"/>
      <path d="M 2625 0 
L 2625 1472 
L 1553 1472 
Q 1075 1472 756 1769 
Q 469 2038 469 2613 
L 469 3500 
L 1044 3500 
L 1044 2666 
Q 1044 2300 1206 2116 
Q 1372 1931 1697 1931 
L 2625 1931 
L 2625 3500 
L 3200 3500 
L 3200 0 
L 2625 0 
z
" id="DejaVuSans-447" transform="scale(0.015625)"/>
     </defs>
     <use xlink:href="#DejaVuSans-41f"/>
     <use x="75.195312" xlink:href="#DejaVuSans-440"/>
     <use x="138.671875" xlink:href="#DejaVuSans-43e"/>
     <use x="199.853516" xlink:href="#DejaVuSans-446"/>
     <use x="267.919922" xlink:href="#DejaVuSans-435"/>
     <use x="329.443359" xlink:href="#DejaVuSans-441"/>
     <use x="384.423828" xlink:href="#DejaVuSans-441"/>
     <use x="439.404297" xlink:href="#DejaVuSans-20"/>
     <use x="471.191406" xlink:href="#DejaVuSans-437"/>
     <use x="524.365234" xlink:href="#DejaVuSans-430"/>
     <use x="585.644531" xlink:href="#DejaVuSans-440"/>
     <use x="649.121094" xlink:href="#DejaVuSans-44f"/>
     <use x="709.277344" xlink:href="#DejaVuSans-434"/>
     <use x="778.417969" xlink:href="#DejaVuSans-430"/>
     <use x="839.697266" xlink:href="#DejaVuSans-20"/>
     <use x="871.484375" xlink:href="#DejaVuSans-438"/>
     <use x="936.474609" xlink:href="#DejaVuSans-20"/>
     <use x="968.261719" xlink:href="#DejaVuSans-440"/>
     <use x="1031.738281" xlink:href="#DejaVuSans-430"/>
     <use x="1093.017578" xlink:href="#DejaVuSans-437"/>
     <use x="1146.191406" xlink:href="#DejaVuSans-440"/>
     <use x="1209.667969" xlink:href="#DejaVuSans-44f"/>
     <use x="1269.824219" xlink:href="#DejaVuSans-434"/>
     <use x="1338.964844" xlink:href="#DejaVuSans-430"/>
     <use x="1400.244141" xlink:href="#DejaVuSans-20"/>
     <use x="1432.03125" xlink:href="#DejaVuSans-43a"/>
     <use x="1492.431641" xlink:href="#DejaVuSans-43e"/>
     <use x="1553.613281" xlink:href="#DejaVuSans-43d"/>
     <use x="1618.994141" xlink:href="#DejaVuSans-434"/>
     <use x="1688.134766" xlink:href="#DejaVuSans-435"/>
     <use x="1749.658203" xlink:href="#DejaVuSans-43d"/>
     <use x="1815.039062" xlink:href="#DejaVuSans-441"/>
     <use x="1870.019531" xlink:href="#DejaVuSans-430"/>
     <use x="1931.298828" xlink:href="#DejaVuSans-442"/>
     <use x="1989.550781" xlink:href="#DejaVuSans-43e"/>
     <use x="2050.732422" xlink:href="#DejaVuSans-440"/>
     <use x="2114.208984" xlink:href="#DejaVuSans-430"/>
     <use x="2175.488281" xlink:href="#DejaVuSans-20"/>
     <use x="2207.275391" xlink:href="#DejaVuSans-432"/>
     <use x="2266.210938" xlink:href="#DejaVuSans-20"/>
     <use x="2297.998047" xlink:href="#DejaVuSans-52"/>
     <use x="2362.480469" xlink:href="#DejaVuSans-43"/>
     <use x="2432.304688" xlink:href="#DejaVuSans-2d"/>
     <use x="2468.388672" xlink:href="#DejaVuSans-446"/>
     <use x="2536.455078" xlink:href="#DejaVuSans-435"/>
     <use x="2597.978516" xlink:href="#DejaVuSans-43f"/>
     <use x="2663.359375" xlink:href="#DejaVuSans-43e"/>
     <use x="2724.541016" xlink:href="#DejaVuSans-447"/>
     <use x="2783.623047" xlink:href="#DejaVuSans-43a"/>
     <use x="2844.023438" xlink:href="#DejaVuSans-435"/>
    </g>
   </g>
   <g id="legend_1">
    <g id="patch_7">
     <path d="M 282.646563 78.82825 
L 407.72 78.82825 
Q 409.72 78.82825 409.72 76.82825 
L 409.72 48.472 
Q 409.72 46.472 407.72 46.472 
L 282.646563 46.472 
Q 280.646563 46.472 280.646563 48.472 
L 280.646563 76.82825 
Q 280.646563 78.82825 282.646563 78.82825 
z
" style="fill:#ffffff;opacity:0.8;stroke:#cccccc;stroke-linejoin:miter;"/>
    </g>
    <g id="line2d_114">
     <path d="M 284.646563 54.570437 
L 304.646563 54.570437 
" style="fill:none;stroke:#0000ff;stroke-linecap:square;stroke-width:2;"/>
    </g>
    <g id="line2d_115"/>
    <g id="text_19">
     <!-- Основной график -->
     <g transform="translate(312.646563 58.070437)scale(0.1 -0.1)">
      <defs>
       <path d="M 2522 4238 
Q 1834 4238 1429 3725 
Q 1025 3213 1025 2328 
Q 1025 1447 1429 934 
Q 1834 422 2522 422 
Q 3209 422 3611 934 
Q 4013 1447 4013 2328 
Q 4013 3213 3611 3725 
Q 3209 4238 2522 4238 
z
M 2522 4750 
Q 3503 4750 4090 4092 
Q 4678 3434 4678 2328 
Q 4678 1225 4090 567 
Q 3503 -91 2522 -91 
Q 1538 -91 948 565 
Q 359 1222 359 2328 
Q 359 3434 948 4092 
Q 1538 4750 2522 4750 
z
" id="DejaVuSans-41e" transform="scale(0.015625)"/>
      </defs>
      <use xlink:href="#DejaVuSans-41e"/>
      <use x="78.710938" xlink:href="#DejaVuSans-441"/>
      <use x="133.691406" xlink:href="#DejaVuSans-43d"/>
      <use x="199.072266" xlink:href="#DejaVuSans-43e"/>
      <use x="260.253906" xlink:href="#DejaVuSans-432"/>
      <use x="319.189453" xlink:href="#DejaVuSans-43d"/>
      <use x="384.570312" xlink:href="#DejaVuSans-43e"/>
      <use x="445.751953" xlink:href="#DejaVuSans-439"/>
      <use x="510.742188" xlink:href="#DejaVuSans-20"/>
      <use x="542.529297" xlink:href="#DejaVuSans-433"/>
      <use x="595.068359" xlink:href="#DejaVuSans-440"/>
      <use x="658.544922" xlink:href="#DejaVuSans-430"/>
      <use x="719.824219" xlink:href="#DejaVuSans-444"/>
      <use x="805.322266" xlink:href="#DejaVuSans-438"/>
      <use x="870.3125" xlink:href="#DejaVuSans-43a"/>
     </g>
    </g>
    <g id="PathCollection_2">
     <g>
      <use style="fill:#0000ff;stroke:#0000ff;stroke-width:2.7;" x="294.646563" xlink:href="#ma5af760665" y="70.123562"/>
     </g>
    </g>
    <g id="text_20">
     <!-- Маркеры -->
     <g transform="translate(312.646563 72.748562)scale(0.1 -0.1)">
      <defs>
       <path d="M 628 4666 
L 1569 4666 
L 2759 1491 
L 3956 4666 
L 4897 4666 
L 4897 0 
L 4281 0 
L 4281 4097 
L 3078 897 
L 2444 897 
L 1241 4097 
L 1241 0 
L 628 0 
L 628 4666 
z
" id="DejaVuSans-41c" transform="scale(0.015625)"/>
       <path d="M 3907 3500 
L 4482 3500 
L 4482 0 
L 3907 0 
L 3907 3500 
z
M 4195 3584 
L 4195 3584 
z
M 2781 1038 
Q 2781 1319 2576 1466 
Q 2372 1613 1978 1613 
L 1159 1613 
L 1159 459 
L 1978 459 
Q 2372 459 2576 607 
Q 2781 756 2781 1038 
z
M 581 3500 
L 1159 3500 
L 1159 2072 
L 2003 2072 
Q 2672 2072 3033 1817 
Q 3394 1563 3394 1038 
Q 3394 513 3033 256 
Q 2672 0 2003 0 
L 581 0 
L 581 3500 
z
" id="DejaVuSans-44b" transform="scale(0.015625)"/>
      </defs>
      <use xlink:href="#DejaVuSans-41c"/>
      <use x="86.279297" xlink:href="#DejaVuSans-430"/>
      <use x="147.558594" xlink:href="#DejaVuSans-440"/>
      <use x="211.035156" xlink:href="#DejaVuSans-43a"/>
      <use x="271.435547" xlink:href="#DejaVuSans-435"/>
      <use x="332.958984" xlink:href="#DejaVuSans-440"/>
      <use x="396.435547" xlink:href="#DejaVuSans-44b"/>
     </g>
    </g>
   </g>
  </g>
 </g>
 <defs>
  <clipPath id="p679f90526f">
   <rect height="266.112" width="357.12" x="57.6" y="41.472"/>
  </clipPath>
 </defs>
</svg>
